<?xml version="1.0" encoding="UTF-8"?>
<svg xmlns="http://www.w3.org/2000/svg" xmlns:xlink="http://www.w3.org/1999/xlink" viewBox="0 0 48 48" width="48px" height="48px">
<g id="surface18309183">
<path style=" stroke:none;fill-rule:nonzero;fill:rgb(15.686275%,17.647059%,30.980393%);fill-opacity:1;" d="M 20 4 L 18 6 L 10 6 C 8.800781 6 8 6.800781 8 8 C 8 9.199219 8.800781 10 10 10 L 38 10 C 39.199219 10 40 9.199219 40 8 C 40 6.800781 39.199219 6 38 6 L 30 6 L 28 4 Z M 10 14 L 10 40 C 10 42.199219 11.800781 44 14 44 L 34 44 C 36.199219 44 38 42.199219 38 40 L 38 14 Z M 18 18 C 19.199219 18 20 18.800781 20 20 L 20 38 C 20 39.199219 19.199219 40 18 40 C 16.800781 40 16 39.199219 16 38 L 16 20 C 16 18.800781 16.800781 18 18 18 Z M 30 18 C 31.199219 18 32 18.800781 32 20 L 32 38 C 32 39.199219 31.199219 40 30 40 C 28.800781 40 28 39.199219 28 38 L 28 20 C 28 18.800781 28.800781 18 30 18 Z M 30 18 "/>
</g>
</svg>
